<mxfile host="app.diagrams.net" modified="2022-07-20T09:38:42.961Z" agent="5.0 (Macintosh; Intel Mac OS X 10_15_7) AppleWebKit/537.36 (KHTML, like Gecko) Chrome/101.0.4951.64 Safari/537.36" etag="kklgZRp7emEYr34zPCBl" version="20.1.3" type="github">
  <diagram id="vkke_k_2h1ItV-8YdydP" name="第 1 页">
    <mxGraphModel dx="-5078" dy="111" grid="1" gridSize="10" guides="1" tooltips="1" connect="1" arrows="1" fold="1" page="1" pageScale="1" pageWidth="827" pageHeight="1169" math="0" shadow="0">
      <root>
        <mxCell id="0" />
        <mxCell id="1" parent="0" />
        <mxCell id="A5VeUBhe-Z22lUvc8o2M-17" value="运营" style="shape=umlActor;verticalLabelPosition=bottom;verticalAlign=top;html=1;outlineConnect=0;" vertex="1" parent="1">
          <mxGeometry x="8240" y="1179" width="30" height="60" as="geometry" />
        </mxCell>
        <mxCell id="A5VeUBhe-Z22lUvc8o2M-18" value="T工程" style="whiteSpace=wrap;html=1;fillColor=#dae8fc;strokeColor=#6c8ebf;" vertex="1" parent="1">
          <mxGeometry x="8080" y="1540" width="120" height="60" as="geometry" />
        </mxCell>
        <mxCell id="A5VeUBhe-Z22lUvc8o2M-19" value="轩辕" style="whiteSpace=wrap;html=1;fillColor=#f8cecc;strokeColor=#b85450;" vertex="1" parent="1">
          <mxGeometry x="8130" y="1382.5" width="250" height="40" as="geometry" />
        </mxCell>
        <mxCell id="A5VeUBhe-Z22lUvc8o2M-20" value="Misc" style="whiteSpace=wrap;html=1;fillColor=#dae8fc;strokeColor=#6c8ebf;" vertex="1" parent="1">
          <mxGeometry x="8310" y="1540" width="120" height="60" as="geometry" />
        </mxCell>
        <mxCell id="A5VeUBhe-Z22lUvc8o2M-21" value="" style="endArrow=classic;html=1;rounded=0;entryX=0.25;entryY=0;entryDx=0;entryDy=0;" edge="1" parent="1" target="A5VeUBhe-Z22lUvc8o2M-19">
          <mxGeometry width="50" height="50" relative="1" as="geometry">
            <mxPoint x="8240" y="1290" as="sourcePoint" />
            <mxPoint x="8150" y="1280" as="targetPoint" />
          </mxGeometry>
        </mxCell>
        <mxCell id="A5VeUBhe-Z22lUvc8o2M-22" value="配置规则" style="edgeLabel;html=1;align=center;verticalAlign=middle;resizable=0;points=[];" vertex="1" connectable="0" parent="A5VeUBhe-Z22lUvc8o2M-21">
          <mxGeometry x="-0.07" y="-2" relative="1" as="geometry">
            <mxPoint as="offset" />
          </mxGeometry>
        </mxCell>
        <mxCell id="A5VeUBhe-Z22lUvc8o2M-23" value="" style="endArrow=classic;html=1;rounded=0;entryX=0.63;entryY=0;entryDx=0;entryDy=0;exitX=0.221;exitY=1.034;exitDx=0;exitDy=0;exitPerimeter=0;entryPerimeter=0;" edge="1" parent="1" source="A5VeUBhe-Z22lUvc8o2M-19" target="A5VeUBhe-Z22lUvc8o2M-18">
          <mxGeometry width="50" height="50" relative="1" as="geometry">
            <mxPoint x="8190" y="1440" as="sourcePoint" />
            <mxPoint x="8120" y="1440" as="targetPoint" />
          </mxGeometry>
        </mxCell>
        <mxCell id="A5VeUBhe-Z22lUvc8o2M-24" value="同步规则" style="edgeLabel;html=1;align=center;verticalAlign=middle;resizable=0;points=[];" vertex="1" connectable="0" parent="A5VeUBhe-Z22lUvc8o2M-23">
          <mxGeometry x="-0.0738" y="1" relative="1" as="geometry">
            <mxPoint as="offset" />
          </mxGeometry>
        </mxCell>
        <mxCell id="A5VeUBhe-Z22lUvc8o2M-25" value="" style="endArrow=classic;html=1;rounded=0;entryX=0;entryY=0.5;entryDx=0;entryDy=0;" edge="1" parent="1" target="A5VeUBhe-Z22lUvc8o2M-18">
          <mxGeometry width="50" height="50" relative="1" as="geometry">
            <mxPoint x="7950" y="1570" as="sourcePoint" />
            <mxPoint x="7840" y="1560" as="targetPoint" />
          </mxGeometry>
        </mxCell>
        <mxCell id="A5VeUBhe-Z22lUvc8o2M-26" value="询T" style="edgeLabel;html=1;align=center;verticalAlign=middle;resizable=0;points=[];" vertex="1" connectable="0" parent="A5VeUBhe-Z22lUvc8o2M-25">
          <mxGeometry x="-0.029" y="5" relative="1" as="geometry">
            <mxPoint x="-1" as="offset" />
          </mxGeometry>
        </mxCell>
        <mxCell id="A5VeUBhe-Z22lUvc8o2M-27" value="记录Tcase" style="html=1;verticalAlign=bottom;endArrow=open;dashed=1;endSize=8;rounded=0;entryX=0;entryY=0.5;entryDx=0;entryDy=0;exitX=1;exitY=0.5;exitDx=0;exitDy=0;" edge="1" parent="1" source="A5VeUBhe-Z22lUvc8o2M-18" target="A5VeUBhe-Z22lUvc8o2M-20">
          <mxGeometry relative="1" as="geometry">
            <mxPoint x="8310" y="1660" as="sourcePoint" />
            <mxPoint x="8230" y="1660" as="targetPoint" />
          </mxGeometry>
        </mxCell>
        <mxCell id="A5VeUBhe-Z22lUvc8o2M-28" value="" style="endArrow=classic;html=1;rounded=0;entryX=0.75;entryY=0;entryDx=0;entryDy=0;" edge="1" parent="1" target="A5VeUBhe-Z22lUvc8o2M-19">
          <mxGeometry width="50" height="50" relative="1" as="geometry">
            <mxPoint x="8280" y="1290" as="sourcePoint" />
            <mxPoint x="8320" y="1370" as="targetPoint" />
          </mxGeometry>
        </mxCell>
        <mxCell id="A5VeUBhe-Z22lUvc8o2M-29" value="查TCase" style="edgeLabel;html=1;align=center;verticalAlign=middle;resizable=0;points=[];" vertex="1" connectable="0" parent="A5VeUBhe-Z22lUvc8o2M-28">
          <mxGeometry x="-0.1622" y="-3" relative="1" as="geometry">
            <mxPoint as="offset" />
          </mxGeometry>
        </mxCell>
        <mxCell id="A5VeUBhe-Z22lUvc8o2M-30" value="" style="endArrow=classic;html=1;rounded=0;exitX=0.822;exitY=0.995;exitDx=0;exitDy=0;exitPerimeter=0;" edge="1" parent="1" source="A5VeUBhe-Z22lUvc8o2M-19" target="A5VeUBhe-Z22lUvc8o2M-20">
          <mxGeometry width="50" height="50" relative="1" as="geometry">
            <mxPoint x="8430" y="1520" as="sourcePoint" />
            <mxPoint x="8480" y="1470" as="targetPoint" />
          </mxGeometry>
        </mxCell>
        <mxCell id="A5VeUBhe-Z22lUvc8o2M-31" value="查Tcase" style="edgeLabel;html=1;align=center;verticalAlign=middle;resizable=0;points=[];" vertex="1" connectable="0" parent="A5VeUBhe-Z22lUvc8o2M-30">
          <mxGeometry x="-0.1855" y="1" relative="1" as="geometry">
            <mxPoint y="1" as="offset" />
          </mxGeometry>
        </mxCell>
        <mxCell id="A5VeUBhe-Z22lUvc8o2M-32" value="运营视角" style="text;html=1;align=center;verticalAlign=middle;resizable=0;points=[];autosize=1;strokeColor=none;fillColor=none;" vertex="1" parent="1">
          <mxGeometry x="7950" y="1220" width="80" height="20" as="geometry" />
        </mxCell>
        <mxCell id="A5VeUBhe-Z22lUvc8o2M-33" value="" style="edgeStyle=orthogonalEdgeStyle;rounded=0;orthogonalLoop=1;jettySize=auto;html=1;" edge="1" parent="1" source="A5VeUBhe-Z22lUvc8o2M-34" target="A5VeUBhe-Z22lUvc8o2M-36">
          <mxGeometry relative="1" as="geometry" />
        </mxCell>
        <mxCell id="A5VeUBhe-Z22lUvc8o2M-34" value="选择店铺" style="rounded=0;whiteSpace=wrap;html=1;fillColor=#f8cecc;strokeColor=#b85450;" vertex="1" parent="1">
          <mxGeometry x="8910" y="1295.25" width="120" height="60" as="geometry" />
        </mxCell>
        <mxCell id="A5VeUBhe-Z22lUvc8o2M-35" value="" style="edgeStyle=orthogonalEdgeStyle;rounded=0;orthogonalLoop=1;jettySize=auto;html=1;" edge="1" parent="1" source="A5VeUBhe-Z22lUvc8o2M-36" target="A5VeUBhe-Z22lUvc8o2M-38">
          <mxGeometry relative="1" as="geometry" />
        </mxCell>
        <mxCell id="A5VeUBhe-Z22lUvc8o2M-36" value="选择餐品" style="rounded=0;whiteSpace=wrap;html=1;fillColor=#f8cecc;strokeColor=#b85450;" vertex="1" parent="1">
          <mxGeometry x="9090" y="1295.25" width="120" height="60" as="geometry" />
        </mxCell>
        <mxCell id="A5VeUBhe-Z22lUvc8o2M-37" value="" style="edgeStyle=orthogonalEdgeStyle;rounded=0;orthogonalLoop=1;jettySize=auto;html=1;" edge="1" parent="1" source="A5VeUBhe-Z22lUvc8o2M-38" target="A5VeUBhe-Z22lUvc8o2M-39">
          <mxGeometry relative="1" as="geometry" />
        </mxCell>
        <mxCell id="A5VeUBhe-Z22lUvc8o2M-38" value="提交订单" style="rounded=0;whiteSpace=wrap;html=1;fillColor=#f8cecc;strokeColor=#b85450;" vertex="1" parent="1">
          <mxGeometry x="9270" y="1295.25" width="120" height="60" as="geometry" />
        </mxCell>
        <mxCell id="A5VeUBhe-Z22lUvc8o2M-39" value="查看订单" style="whiteSpace=wrap;html=1;fillColor=#f8cecc;strokeColor=#b85450;" vertex="1" parent="1">
          <mxGeometry x="9450" y="1295.25" width="120" height="60" as="geometry" />
        </mxCell>
        <mxCell id="A5VeUBhe-Z22lUvc8o2M-40" value="用户视角" style="text;html=1;align=center;verticalAlign=middle;resizable=0;points=[];autosize=1;strokeColor=none;fillColor=none;" vertex="1" parent="1">
          <mxGeometry x="8780" y="1312.25" width="80" height="20" as="geometry" />
        </mxCell>
        <mxCell id="A5VeUBhe-Z22lUvc8o2M-41" value="骑手视角" style="text;html=1;align=center;verticalAlign=middle;resizable=0;points=[];autosize=1;strokeColor=none;fillColor=none;" vertex="1" parent="1">
          <mxGeometry x="10090" y="1371.5" width="80" height="20" as="geometry" />
        </mxCell>
        <mxCell id="A5VeUBhe-Z22lUvc8o2M-42" value="专送派单" style="whiteSpace=wrap;html=1;fillColor=#dae8fc;strokeColor=#6c8ebf;" vertex="1" parent="1">
          <mxGeometry x="10220" y="1423.5" width="120" height="60" as="geometry" />
        </mxCell>
        <mxCell id="A5VeUBhe-Z22lUvc8o2M-43" value="众包抢单" style="whiteSpace=wrap;html=1;fillColor=#dae8fc;strokeColor=#6c8ebf;" vertex="1" parent="1">
          <mxGeometry x="10220" y="1313.5" width="120" height="60" as="geometry" />
        </mxCell>
        <mxCell id="A5VeUBhe-Z22lUvc8o2M-44" value="" style="edgeStyle=orthogonalEdgeStyle;rounded=0;orthogonalLoop=1;jettySize=auto;html=1;" edge="1" parent="1" source="A5VeUBhe-Z22lUvc8o2M-45" target="A5VeUBhe-Z22lUvc8o2M-47">
          <mxGeometry relative="1" as="geometry" />
        </mxCell>
        <mxCell id="A5VeUBhe-Z22lUvc8o2M-45" value="接单" style="whiteSpace=wrap;html=1;fillColor=#dae8fc;strokeColor=#6c8ebf;" vertex="1" parent="1">
          <mxGeometry x="10400" y="1370.5" width="120" height="60" as="geometry" />
        </mxCell>
        <mxCell id="A5VeUBhe-Z22lUvc8o2M-46" value="" style="edgeStyle=orthogonalEdgeStyle;rounded=0;orthogonalLoop=1;jettySize=auto;html=1;" edge="1" parent="1" source="A5VeUBhe-Z22lUvc8o2M-47" target="A5VeUBhe-Z22lUvc8o2M-48">
          <mxGeometry relative="1" as="geometry" />
        </mxCell>
        <mxCell id="A5VeUBhe-Z22lUvc8o2M-47" value="取餐" style="whiteSpace=wrap;html=1;fillColor=#dae8fc;strokeColor=#6c8ebf;" vertex="1" parent="1">
          <mxGeometry x="10580" y="1371.5" width="120" height="60" as="geometry" />
        </mxCell>
        <mxCell id="A5VeUBhe-Z22lUvc8o2M-48" value="送达" style="whiteSpace=wrap;html=1;fillColor=#dae8fc;strokeColor=#6c8ebf;" vertex="1" parent="1">
          <mxGeometry x="10750" y="1370.5" width="120" height="60" as="geometry" />
        </mxCell>
        <mxCell id="A5VeUBhe-Z22lUvc8o2M-49" value="" style="endArrow=classic;html=1;rounded=0;entryX=0;entryY=0.25;entryDx=0;entryDy=0;exitX=1;exitY=0.5;exitDx=0;exitDy=0;" edge="1" parent="1" source="A5VeUBhe-Z22lUvc8o2M-43" target="A5VeUBhe-Z22lUvc8o2M-45">
          <mxGeometry width="50" height="50" relative="1" as="geometry">
            <mxPoint x="10350" y="1402" as="sourcePoint" />
            <mxPoint x="10400" y="1352" as="targetPoint" />
          </mxGeometry>
        </mxCell>
        <mxCell id="A5VeUBhe-Z22lUvc8o2M-50" value="" style="endArrow=classic;html=1;rounded=0;entryX=0;entryY=0.5;entryDx=0;entryDy=0;exitX=1;exitY=0.75;exitDx=0;exitDy=0;" edge="1" parent="1" source="A5VeUBhe-Z22lUvc8o2M-42" target="A5VeUBhe-Z22lUvc8o2M-45">
          <mxGeometry width="50" height="50" relative="1" as="geometry">
            <mxPoint x="10410" y="1472" as="sourcePoint" />
            <mxPoint x="10390" y="1432" as="targetPoint" />
          </mxGeometry>
        </mxCell>
        <mxCell id="A5VeUBhe-Z22lUvc8o2M-51" value="列表T" style="whiteSpace=wrap;html=1;fillColor=#d5e8d4;strokeColor=#82b366;" vertex="1" parent="1">
          <mxGeometry x="8910" y="1444.75" width="120" height="60" as="geometry" />
        </mxCell>
        <mxCell id="A5VeUBhe-Z22lUvc8o2M-52" value="列表T" style="whiteSpace=wrap;html=1;fillColor=#d5e8d4;strokeColor=#82b366;" vertex="1" parent="1">
          <mxGeometry x="9090" y="1447.25" width="120" height="60" as="geometry" />
        </mxCell>
        <mxCell id="A5VeUBhe-Z22lUvc8o2M-53" value="用户T" style="whiteSpace=wrap;html=1;fillColor=#d5e8d4;strokeColor=#82b366;" vertex="1" parent="1">
          <mxGeometry x="9270" y="1447.25" width="120" height="60" as="geometry" />
        </mxCell>
        <mxCell id="A5VeUBhe-Z22lUvc8o2M-54" value="分段T" style="whiteSpace=wrap;html=1;fillColor=#d5e8d4;strokeColor=#82b366;" vertex="1" parent="1">
          <mxGeometry x="9450" y="1450.75" width="120" height="60" as="geometry" />
        </mxCell>
        <mxCell id="A5VeUBhe-Z22lUvc8o2M-55" value="专送动态T" style="whiteSpace=wrap;html=1;fillColor=#d5e8d4;strokeColor=#82b366;" vertex="1" parent="1">
          <mxGeometry x="10400" y="1537.5" width="120" height="60" as="geometry" />
        </mxCell>
        <mxCell id="A5VeUBhe-Z22lUvc8o2M-56" value="众包动态T" style="whiteSpace=wrap;html=1;fillColor=#d5e8d4;strokeColor=#82b366;" vertex="1" parent="1">
          <mxGeometry x="10220" y="1178.5" width="120" height="60" as="geometry" />
        </mxCell>
        <mxCell id="A5VeUBhe-Z22lUvc8o2M-57" value="" style="shape=flexArrow;endArrow=classic;html=1;rounded=0;" edge="1" parent="1">
          <mxGeometry width="50" height="50" relative="1" as="geometry">
            <mxPoint x="8968.89" y="1436.7499999999995" as="sourcePoint" />
            <mxPoint x="8968.89" y="1376.7499999999995" as="targetPoint" />
          </mxGeometry>
        </mxCell>
        <mxCell id="A5VeUBhe-Z22lUvc8o2M-58" value="" style="shape=flexArrow;endArrow=classic;html=1;rounded=0;" edge="1" parent="1">
          <mxGeometry width="50" height="50" relative="1" as="geometry">
            <mxPoint x="9148.89" y="1438.75" as="sourcePoint" />
            <mxPoint x="9148.89" y="1378.75" as="targetPoint" />
          </mxGeometry>
        </mxCell>
        <mxCell id="A5VeUBhe-Z22lUvc8o2M-59" value="" style="shape=flexArrow;endArrow=classic;html=1;rounded=0;" edge="1" parent="1">
          <mxGeometry width="50" height="50" relative="1" as="geometry">
            <mxPoint x="9328.89" y="1436.7499999999995" as="sourcePoint" />
            <mxPoint x="9328.89" y="1376.7499999999995" as="targetPoint" />
          </mxGeometry>
        </mxCell>
        <mxCell id="A5VeUBhe-Z22lUvc8o2M-60" value="" style="shape=flexArrow;endArrow=classic;html=1;rounded=0;" edge="1" parent="1">
          <mxGeometry width="50" height="50" relative="1" as="geometry">
            <mxPoint x="9508.89" y="1438.75" as="sourcePoint" />
            <mxPoint x="9508.89" y="1378.75" as="targetPoint" />
          </mxGeometry>
        </mxCell>
        <mxCell id="A5VeUBhe-Z22lUvc8o2M-61" value="" style="shape=flexArrow;endArrow=classic;html=1;rounded=0;" edge="1" parent="1">
          <mxGeometry width="50" height="50" relative="1" as="geometry">
            <mxPoint x="10278.89" y="1248.5" as="sourcePoint" />
            <mxPoint x="10278.89" y="1305" as="targetPoint" />
          </mxGeometry>
        </mxCell>
        <mxCell id="A5VeUBhe-Z22lUvc8o2M-62" value="" style="shape=flexArrow;endArrow=classic;html=1;rounded=0;" edge="1" parent="1">
          <mxGeometry width="50" height="50" relative="1" as="geometry">
            <mxPoint x="10458.89" y="1524.4999999999995" as="sourcePoint" />
            <mxPoint x="10458.89" y="1464.4999999999995" as="targetPoint" />
          </mxGeometry>
        </mxCell>
        <mxCell id="A5VeUBhe-Z22lUvc8o2M-63" value="预计出餐T" style="whiteSpace=wrap;html=1;fillColor=#d5e8d4;strokeColor=#82b366;" vertex="1" parent="1">
          <mxGeometry x="10575" y="1540" width="120" height="60" as="geometry" />
        </mxCell>
        <mxCell id="A5VeUBhe-Z22lUvc8o2M-64" value="" style="shape=flexArrow;endArrow=classic;html=1;rounded=0;" edge="1" parent="1">
          <mxGeometry width="50" height="50" relative="1" as="geometry">
            <mxPoint x="10633.89" y="1526.9999999999995" as="sourcePoint" />
            <mxPoint x="10633.89" y="1466.9999999999995" as="targetPoint" />
          </mxGeometry>
        </mxCell>
        <mxCell id="A5VeUBhe-Z22lUvc8o2M-65" value="" style="edgeStyle=orthogonalEdgeStyle;rounded=0;orthogonalLoop=1;jettySize=auto;html=1;" edge="1" parent="1" source="A5VeUBhe-Z22lUvc8o2M-66" target="A5VeUBhe-Z22lUvc8o2M-68">
          <mxGeometry relative="1" as="geometry" />
        </mxCell>
        <mxCell id="A5VeUBhe-Z22lUvc8o2M-66" value="导购" style="whiteSpace=wrap;html=1;fillColor=#f8cecc;strokeColor=#b85450;" vertex="1" parent="1">
          <mxGeometry x="8120" y="2070" width="120" height="60" as="geometry" />
        </mxCell>
        <mxCell id="A5VeUBhe-Z22lUvc8o2M-67" value="" style="edgeStyle=orthogonalEdgeStyle;rounded=0;orthogonalLoop=1;jettySize=auto;html=1;" edge="1" parent="1" source="A5VeUBhe-Z22lUvc8o2M-68" target="A5VeUBhe-Z22lUvc8o2M-70">
          <mxGeometry relative="1" as="geometry" />
        </mxCell>
        <mxCell id="A5VeUBhe-Z22lUvc8o2M-68" value="店详" style="whiteSpace=wrap;html=1;fillColor=#f8cecc;strokeColor=#b85450;" vertex="1" parent="1">
          <mxGeometry x="8300" y="2070.5" width="120" height="60" as="geometry" />
        </mxCell>
        <mxCell id="A5VeUBhe-Z22lUvc8o2M-69" value="" style="edgeStyle=orthogonalEdgeStyle;rounded=0;orthogonalLoop=1;jettySize=auto;html=1;" edge="1" parent="1" source="A5VeUBhe-Z22lUvc8o2M-70" target="A5VeUBhe-Z22lUvc8o2M-72">
          <mxGeometry relative="1" as="geometry" />
        </mxCell>
        <mxCell id="A5VeUBhe-Z22lUvc8o2M-70" value="交易" style="whiteSpace=wrap;html=1;fillColor=#f8cecc;strokeColor=#b85450;" vertex="1" parent="1">
          <mxGeometry x="8480" y="2070.5" width="120" height="60" as="geometry" />
        </mxCell>
        <mxCell id="A5VeUBhe-Z22lUvc8o2M-71" value="" style="edgeStyle=orthogonalEdgeStyle;rounded=0;orthogonalLoop=1;jettySize=auto;html=1;" edge="1" parent="1" source="A5VeUBhe-Z22lUvc8o2M-72" target="A5VeUBhe-Z22lUvc8o2M-74">
          <mxGeometry relative="1" as="geometry" />
        </mxCell>
        <mxCell id="A5VeUBhe-Z22lUvc8o2M-72" value="订单" style="whiteSpace=wrap;html=1;fillColor=#f8cecc;strokeColor=#b85450;" vertex="1" parent="1">
          <mxGeometry x="8660" y="2070.5" width="120" height="60" as="geometry" />
        </mxCell>
        <mxCell id="A5VeUBhe-Z22lUvc8o2M-73" value="" style="edgeStyle=orthogonalEdgeStyle;rounded=0;orthogonalLoop=1;jettySize=auto;html=1;" edge="1" parent="1" source="A5VeUBhe-Z22lUvc8o2M-74" target="A5VeUBhe-Z22lUvc8o2M-76">
          <mxGeometry relative="1" as="geometry" />
        </mxCell>
        <mxCell id="A5VeUBhe-Z22lUvc8o2M-74" value="商户/零售履约" style="whiteSpace=wrap;html=1;fillColor=#f8cecc;strokeColor=#b85450;" vertex="1" parent="1">
          <mxGeometry x="8840" y="2070.5" width="120" height="60" as="geometry" />
        </mxCell>
        <mxCell id="A5VeUBhe-Z22lUvc8o2M-75" value="" style="edgeStyle=orthogonalEdgeStyle;rounded=0;orthogonalLoop=1;jettySize=auto;html=1;" edge="1" parent="1" source="A5VeUBhe-Z22lUvc8o2M-76" target="A5VeUBhe-Z22lUvc8o2M-78">
          <mxGeometry relative="1" as="geometry" />
        </mxCell>
        <mxCell id="A5VeUBhe-Z22lUvc8o2M-76" value="运单" style="whiteSpace=wrap;html=1;fillColor=#dae8fc;strokeColor=#6c8ebf;" vertex="1" parent="1">
          <mxGeometry x="9035" y="2070" width="120" height="60" as="geometry" />
        </mxCell>
        <mxCell id="A5VeUBhe-Z22lUvc8o2M-77" value="" style="edgeStyle=orthogonalEdgeStyle;rounded=0;orthogonalLoop=1;jettySize=auto;html=1;" edge="1" parent="1" source="A5VeUBhe-Z22lUvc8o2M-78" target="A5VeUBhe-Z22lUvc8o2M-80">
          <mxGeometry relative="1" as="geometry" />
        </mxCell>
        <mxCell id="A5VeUBhe-Z22lUvc8o2M-78" value="分流" style="whiteSpace=wrap;html=1;fillColor=#dae8fc;strokeColor=#6c8ebf;" vertex="1" parent="1">
          <mxGeometry x="9215" y="2070" width="120" height="60" as="geometry" />
        </mxCell>
        <mxCell id="A5VeUBhe-Z22lUvc8o2M-79" value="" style="edgeStyle=orthogonalEdgeStyle;rounded=0;orthogonalLoop=1;jettySize=auto;html=1;" edge="1" parent="1" source="A5VeUBhe-Z22lUvc8o2M-80" target="A5VeUBhe-Z22lUvc8o2M-81">
          <mxGeometry relative="1" as="geometry" />
        </mxCell>
        <mxCell id="A5VeUBhe-Z22lUvc8o2M-80" value="调度" style="whiteSpace=wrap;html=1;fillColor=#dae8fc;strokeColor=#6c8ebf;" vertex="1" parent="1">
          <mxGeometry x="9395" y="2070" width="120" height="60" as="geometry" />
        </mxCell>
        <mxCell id="A5VeUBhe-Z22lUvc8o2M-81" value="作业" style="whiteSpace=wrap;html=1;fillColor=#dae8fc;strokeColor=#6c8ebf;" vertex="1" parent="1">
          <mxGeometry x="9575" y="2070" width="120" height="60" as="geometry" />
        </mxCell>
        <mxCell id="A5VeUBhe-Z22lUvc8o2M-82" value="平台视角" style="text;html=1;align=center;verticalAlign=middle;resizable=0;points=[];autosize=1;strokeColor=none;fillColor=none;" vertex="1" parent="1">
          <mxGeometry x="8000" y="2090" width="80" height="20" as="geometry" />
        </mxCell>
        <mxCell id="A5VeUBhe-Z22lUvc8o2M-83" value="T工程" style="whiteSpace=wrap;html=1;fillColor=#dae8fc;strokeColor=#6c8ebf;" vertex="1" parent="1">
          <mxGeometry x="9035" y="2414" width="120" height="60" as="geometry" />
        </mxCell>
        <mxCell id="A5VeUBhe-Z22lUvc8o2M-84" value="" style="curved=1;endArrow=classic;html=1;rounded=0;exitX=0.25;exitY=0;exitDx=0;exitDy=0;entryX=0.5;entryY=1;entryDx=0;entryDy=0;" edge="1" parent="1" source="A5VeUBhe-Z22lUvc8o2M-83" target="A5VeUBhe-Z22lUvc8o2M-66">
          <mxGeometry width="50" height="50" relative="1" as="geometry">
            <mxPoint x="8640" y="2398.5" as="sourcePoint" />
            <mxPoint x="8370" y="2238.5" as="targetPoint" />
            <Array as="points">
              <mxPoint x="8640" y="2348.5" />
            </Array>
          </mxGeometry>
        </mxCell>
        <mxCell id="A5VeUBhe-Z22lUvc8o2M-85" value="" style="curved=1;endArrow=classic;html=1;rounded=0;exitX=0.5;exitY=0;exitDx=0;exitDy=0;entryX=0.5;entryY=1;entryDx=0;entryDy=0;" edge="1" parent="1" source="A5VeUBhe-Z22lUvc8o2M-83" target="A5VeUBhe-Z22lUvc8o2M-68">
          <mxGeometry width="50" height="50" relative="1" as="geometry">
            <mxPoint x="9085" y="2287" as="sourcePoint" />
            <mxPoint x="8200" y="2038.5" as="targetPoint" />
            <Array as="points">
              <mxPoint x="8650" y="2298.5" />
            </Array>
          </mxGeometry>
        </mxCell>
        <mxCell id="A5VeUBhe-Z22lUvc8o2M-86" value="" style="curved=1;endArrow=classic;html=1;rounded=0;exitX=0.5;exitY=0;exitDx=0;exitDy=0;entryX=0.5;entryY=1;entryDx=0;entryDy=0;" edge="1" parent="1" source="A5VeUBhe-Z22lUvc8o2M-83" target="A5VeUBhe-Z22lUvc8o2M-70">
          <mxGeometry width="50" height="50" relative="1" as="geometry">
            <mxPoint x="9335" y="2396.5" as="sourcePoint" />
            <mxPoint x="8600" y="2148.5" as="targetPoint" />
            <Array as="points">
              <mxPoint x="8780" y="2316.5" />
            </Array>
          </mxGeometry>
        </mxCell>
        <mxCell id="A5VeUBhe-Z22lUvc8o2M-87" value="" style="curved=1;endArrow=classic;html=1;rounded=0;exitX=0.5;exitY=0;exitDx=0;exitDy=0;entryX=0.5;entryY=1;entryDx=0;entryDy=0;" edge="1" parent="1" source="A5VeUBhe-Z22lUvc8o2M-83" target="A5VeUBhe-Z22lUvc8o2M-78">
          <mxGeometry width="50" height="50" relative="1" as="geometry">
            <mxPoint x="9150" y="2352" as="sourcePoint" />
            <mxPoint x="9510" y="2212" as="targetPoint" />
            <Array as="points">
              <mxPoint x="9260" y="2338.5" />
            </Array>
          </mxGeometry>
        </mxCell>
        <mxCell id="A5VeUBhe-Z22lUvc8o2M-88" value="" style="curved=1;endArrow=classic;html=1;rounded=0;exitX=0.5;exitY=0;exitDx=0;exitDy=0;entryX=0.5;entryY=1;entryDx=0;entryDy=0;" edge="1" parent="1" source="A5VeUBhe-Z22lUvc8o2M-83" target="A5VeUBhe-Z22lUvc8o2M-76">
          <mxGeometry width="50" height="50" relative="1" as="geometry">
            <mxPoint x="9110" y="2352" as="sourcePoint" />
            <mxPoint x="9470" y="2212" as="targetPoint" />
            <Array as="points" />
          </mxGeometry>
        </mxCell>
        <mxCell id="A5VeUBhe-Z22lUvc8o2M-89" value="" style="curved=1;endArrow=classic;html=1;rounded=0;entryX=0.5;entryY=1;entryDx=0;entryDy=0;exitX=0.5;exitY=0;exitDx=0;exitDy=0;" edge="1" parent="1" source="A5VeUBhe-Z22lUvc8o2M-83" target="A5VeUBhe-Z22lUvc8o2M-81">
          <mxGeometry width="50" height="50" relative="1" as="geometry">
            <mxPoint x="9280" y="2347" as="sourcePoint" />
            <mxPoint x="9640" y="2207" as="targetPoint" />
            <Array as="points">
              <mxPoint x="9490" y="2347.5" />
            </Array>
          </mxGeometry>
        </mxCell>
        <mxCell id="A5VeUBhe-Z22lUvc8o2M-90" value="" style="curved=1;endArrow=classic;html=1;rounded=0;exitX=0.5;exitY=0;exitDx=0;exitDy=0;entryX=0.5;entryY=1;entryDx=0;entryDy=0;" edge="1" parent="1" source="A5VeUBhe-Z22lUvc8o2M-83" target="A5VeUBhe-Z22lUvc8o2M-80">
          <mxGeometry width="50" height="50" relative="1" as="geometry">
            <mxPoint x="9230" y="2390" as="sourcePoint" />
            <mxPoint x="9590" y="2250" as="targetPoint" />
            <Array as="points">
              <mxPoint x="9380" y="2348.5" />
            </Array>
          </mxGeometry>
        </mxCell>
        <mxCell id="A5VeUBhe-Z22lUvc8o2M-91" value="" style="curved=1;endArrow=classic;html=1;rounded=0;entryX=0;entryY=0.5;entryDx=0;entryDy=0;exitX=0.75;exitY=1;exitDx=0;exitDy=0;" edge="1" parent="1" source="A5VeUBhe-Z22lUvc8o2M-94" target="A5VeUBhe-Z22lUvc8o2M-99">
          <mxGeometry width="50" height="50" relative="1" as="geometry">
            <mxPoint x="10440" y="2550.75" as="sourcePoint" />
            <mxPoint x="10560" y="2469.25" as="targetPoint" />
            <Array as="points">
              <mxPoint x="10530" y="2479.25" />
            </Array>
          </mxGeometry>
        </mxCell>
        <mxCell id="A5VeUBhe-Z22lUvc8o2M-92" value="T分类" style="rounded=0;whiteSpace=wrap;html=1;" vertex="1" parent="1">
          <mxGeometry x="10150" y="2219.25" width="120" height="60" as="geometry" />
        </mxCell>
        <mxCell id="A5VeUBhe-Z22lUvc8o2M-93" value="用户T" style="rounded=0;whiteSpace=wrap;html=1;fillColor=#f8cecc;strokeColor=#b85450;" vertex="1" parent="1">
          <mxGeometry x="10360" y="2097" width="120" height="60" as="geometry" />
        </mxCell>
        <mxCell id="A5VeUBhe-Z22lUvc8o2M-94" value="骑手T" style="whiteSpace=wrap;html=1;fillColor=#dae8fc;strokeColor=#6c8ebf;" vertex="1" parent="1">
          <mxGeometry x="10360" y="2369.25" width="120" height="60" as="geometry" />
        </mxCell>
        <mxCell id="A5VeUBhe-Z22lUvc8o2M-95" value="列表T" style="whiteSpace=wrap;html=1;fillColor=#f8cecc;strokeColor=#b85450;" vertex="1" parent="1">
          <mxGeometry x="10610" y="2000" width="120" height="60" as="geometry" />
        </mxCell>
        <mxCell id="A5VeUBhe-Z22lUvc8o2M-96" value="预计送达时间点" style="whiteSpace=wrap;html=1;fillColor=#f8cecc;strokeColor=#b85450;" vertex="1" parent="1">
          <mxGeometry x="10610" y="2100" width="120" height="60" as="geometry" />
        </mxCell>
        <mxCell id="A5VeUBhe-Z22lUvc8o2M-97" value="时间片" style="whiteSpace=wrap;html=1;fillColor=#f8cecc;strokeColor=#b85450;" vertex="1" parent="1">
          <mxGeometry x="10610" y="2197" width="120" height="60" as="geometry" />
        </mxCell>
        <mxCell id="A5VeUBhe-Z22lUvc8o2M-98" value="专送动态T" style="whiteSpace=wrap;html=1;fillColor=#dae8fc;strokeColor=#6c8ebf;" vertex="1" parent="1">
          <mxGeometry x="10610" y="2319.25" width="120" height="60" as="geometry" />
        </mxCell>
        <mxCell id="A5VeUBhe-Z22lUvc8o2M-99" value="众包动态T" style="whiteSpace=wrap;html=1;fillColor=#dae8fc;strokeColor=#6c8ebf;" vertex="1" parent="1">
          <mxGeometry x="10610" y="2429.25" width="120" height="60" as="geometry" />
        </mxCell>
        <mxCell id="A5VeUBhe-Z22lUvc8o2M-100" value="" style="curved=1;endArrow=classic;html=1;rounded=0;exitX=0.75;exitY=0;exitDx=0;exitDy=0;entryX=0;entryY=0.5;entryDx=0;entryDy=0;" edge="1" parent="1" source="A5VeUBhe-Z22lUvc8o2M-92" target="A5VeUBhe-Z22lUvc8o2M-93">
          <mxGeometry width="50" height="50" relative="1" as="geometry">
            <mxPoint x="10290" y="2177.75" as="sourcePoint" />
            <mxPoint x="10520" y="2027.75" as="targetPoint" />
            <Array as="points">
              <mxPoint x="10290" y="2149.25" />
            </Array>
          </mxGeometry>
        </mxCell>
        <mxCell id="A5VeUBhe-Z22lUvc8o2M-101" value="" style="curved=1;endArrow=classic;html=1;rounded=0;" edge="1" parent="1" source="A5VeUBhe-Z22lUvc8o2M-93" target="A5VeUBhe-Z22lUvc8o2M-95">
          <mxGeometry width="50" height="50" relative="1" as="geometry">
            <mxPoint x="10360" y="2100" as="sourcePoint" />
            <mxPoint x="10590" y="1950" as="targetPoint" />
            <Array as="points">
              <mxPoint x="10480" y="2039.25" />
            </Array>
          </mxGeometry>
        </mxCell>
        <mxCell id="A5VeUBhe-Z22lUvc8o2M-102" value="" style="curved=1;endArrow=classic;html=1;rounded=0;exitX=0.75;exitY=1;exitDx=0;exitDy=0;" edge="1" parent="1" source="A5VeUBhe-Z22lUvc8o2M-92" target="A5VeUBhe-Z22lUvc8o2M-94">
          <mxGeometry width="50" height="50" relative="1" as="geometry">
            <mxPoint x="10250" y="2319.25" as="sourcePoint" />
            <mxPoint x="10430" y="2374.25" as="targetPoint" />
            <Array as="points">
              <mxPoint x="10270" y="2339.25" />
            </Array>
          </mxGeometry>
        </mxCell>
        <mxCell id="A5VeUBhe-Z22lUvc8o2M-103" value="" style="curved=1;endArrow=classic;html=1;rounded=0;exitX=1;exitY=0.5;exitDx=0;exitDy=0;" edge="1" parent="1" source="A5VeUBhe-Z22lUvc8o2M-93" target="A5VeUBhe-Z22lUvc8o2M-96">
          <mxGeometry width="50" height="50" relative="1" as="geometry">
            <mxPoint x="10463" y="2205" as="sourcePoint" />
            <mxPoint x="10590" y="2109.25" as="targetPoint" />
            <Array as="points" />
          </mxGeometry>
        </mxCell>
        <mxCell id="A5VeUBhe-Z22lUvc8o2M-104" value="" style="curved=1;endArrow=classic;html=1;rounded=0;entryX=0;entryY=0.25;entryDx=0;entryDy=0;" edge="1" parent="1" source="A5VeUBhe-Z22lUvc8o2M-93" target="A5VeUBhe-Z22lUvc8o2M-97">
          <mxGeometry width="50" height="50" relative="1" as="geometry">
            <mxPoint x="10390" y="2309.25" as="sourcePoint" />
            <mxPoint x="10580" y="2207.75" as="targetPoint" />
            <Array as="points">
              <mxPoint x="10490" y="2227.25" />
            </Array>
          </mxGeometry>
        </mxCell>
        <mxCell id="A5VeUBhe-Z22lUvc8o2M-105" value="" style="curved=1;endArrow=classic;html=1;rounded=0;entryX=0;entryY=0.5;entryDx=0;entryDy=0;" edge="1" parent="1" source="A5VeUBhe-Z22lUvc8o2M-94" target="A5VeUBhe-Z22lUvc8o2M-98">
          <mxGeometry width="50" height="50" relative="1" as="geometry">
            <mxPoint x="10520" y="2389.25" as="sourcePoint" />
            <mxPoint x="10620" y="2296.25" as="targetPoint" />
            <Array as="points">
              <mxPoint x="10480" y="2349.25" />
            </Array>
          </mxGeometry>
        </mxCell>
        <mxCell id="A5VeUBhe-Z22lUvc8o2M-106" value="T的分类" style="text;html=1;align=center;verticalAlign=middle;resizable=0;points=[];autosize=1;strokeColor=none;fillColor=none;" vertex="1" parent="1">
          <mxGeometry x="10150" y="2075.25" width="70" height="20" as="geometry" />
        </mxCell>
      </root>
    </mxGraphModel>
  </diagram>
</mxfile>
